<svg width="33" height="30" viewBox="0 0 33 30" fill="none" xmlns="http://www.w3.org/2000/svg">
<path d="M15.9547 4.12083L16.3638 4.70316L16.7729 4.12083C18.3648 1.85504 20.9588 0.504402 23.7279 0.5C28.2189 0.500241 32.2276 4.70903 32.2276 9.54554C32.2276 14.3054 29.5376 19.284 24.3006 23.9317C21.879 26.0782 19.2227 27.9449 16.3827 29.496C16.3706 29.5014 16.3569 29.5013 16.3448 29.4959C13.5038 27.9448 10.8467 26.0785 8.42438 23.9318C3.18996 19.2841 0.5 14.3054 0.5 9.54554C0.5 4.70903 4.5087 0.500241 8.99969 0.5C11.7688 0.5044 14.3628 1.85504 15.9547 4.12083ZM16.1222 29.2723L16.3638 29.4056L16.6054 29.2723C17.6233 28.7105 21.4832 26.4794 25.0952 23.0609C28.6932 19.6557 32.1366 14.9857 32.1366 9.54554C32.1366 4.79758 28.2483 0.590919 23.7275 0.590918L23.7266 0.59092C20.7001 0.596285 17.9097 2.22454 16.4156 4.85528C16.4029 4.87027 16.3841 4.87922 16.3638 4.87922C16.3435 4.87922 16.3246 4.87026 16.3119 4.85527C14.8179 2.22453 12.0274 0.596285 9.00097 0.590919H9.00008C4.4793 0.590919 0.590919 4.79758 0.590919 9.54554C0.590919 14.9857 4.03438 19.6557 7.63239 23.0609C11.2444 26.4794 15.1042 28.7105 16.1222 29.2723Z" fill="#D12929" stroke="#121212"/>
</svg>
